PathFileType	4	(X/Y/Z)	AB12\squats_1.trc
DataRate	CameraRate	NumFrames	NumMarkers	Units	OrigDataRate	OrigDataStartFrame	OrigNumFrames
200.000000	200.000000	6	35	mm	200.000000	228	304
Frame#	Time	C7			LSHO			STRN			LASI			RASI			LPSI			RPSI			LGTR			RGTR			LTHC			LTHL			LTHR			LKNE			LMKNE			LSHC			LSHL			LSHR			LANK			LMANK			LMT1			LMT5			LCAL			RTHC			RTHL			RTHR			RKNE			RMKNE			RSHC			RSHL			RSHR			RANK			RMANK			RMT1			RMT5			RCAL			
		X1	Y1	Z1	X2	Y2	Z2	X3	Y3	Z3	X4	Y4	Z4	X5	Y5	Z5	X6	Y6	Z6	X7	Y7	Z7	X8	Y8	Z8	X9	Y9	Z9	X10	Y10	Z10	X11	Y11	Z11	X12	Y12	Z12	X13	Y13	Z13	X14	Y14	Z14	X15	Y15	Z15	X16	Y16	Z16	X17	Y17	Z17	X18	Y18	Z18	X19	Y19	Z19	X20	Y20	Z20	X21	Y21	Z21	X22	Y22	Z22	X23	Y23	Z23	X24	Y24	Z24	X25	Y25	Z25	X26	Y26	Z26	X27	Y27	Z27	X28	Y28	Z28	X29	Y29	Z29	X30	Y30	Z30	X31	Y31	Z31	X32	Y32	Z32	X33	Y33	Z33	X34	Y34	Z34	X35	Y35	Z35	

229	22.13	-3530.217681165189	1154.335859936125	2474.445061129829	-3584.786995920735	1113.67739044427	2596.995005001353	-3620.164606595049	1022.848232812094	2477.200891960597	-3414.563823186147	742.4705925519991	2632.2376655579	-3420.286471949139	749.0568268729888	2350.604196385126	-3229.101462731452	834.1228671589377	2521.483153700285	-3225.904725286808	826.3986729093756	2431.348823024124	-3297.414183921455	735.0499765491037	2702.710431399828	-3325.264235689558	696.0635791374864	2273.294043668624	-3455.588820037765	560.1834797070997	2714.266561741371	-3589.466098952849	565.5518359901931	2654.690063630233	-3494.54595374653	429.2843356900253	2627.259206952153	-3606.575059374366	411.1655969896231	2724.027771390352	-3627.164154197281	400.6293139621635	2590.956957345717	-3515.934015029389	271.2447377210823	2727.143653177602	-3522.574983833216	175.5970042651048	2678.888890771809	-3427.756285204433	195.6847577928891	2652.106188949746	-3410.833261352029	86.95667200780383	2704.94097688502	-3425.948371421937	77.99388641817463	2617.114860470403	-3546.841558450596	45.94652953957478	2663.711997290311	-3507.086511002065	42.03597773259577	2746.802869861926	-3333.073893772279	64.96329000552809	2671.351843154177	-3515.561859086156	415.4661665285878	2390.305752599447	-3453.103869387492	525.5734220769273	2291.699628664634	-3584.750989912136	571.1087156772435	2355.562596492241	-3601.189042726513	402.5724786283575	2296.008263257387	-3620.93708129193	373.7225191682855	2423.577861406552	-3409.820935095257	180.6803724880832	2353.999997000991	-3499.10542556655	272.1476545797127	2293.044941598905	-3514.957643167238	173.5037354463814	2333.802747209042	-3395.905611310368	90.73612383300461	2302.907631553928	-3417.585888377143	81.43663427074293	2387.710332524682	-3530.114822210055	50.93784999872416	2341.048162475781	-3493.836176051148	49.25904662768076	2267.973914163259	-3322.565756010112	70.23789158235597	2348.192333736451	
230	22.135	-3529.466920073432	1159.816320061427	2474.602927809543	-3584.064028694576	1119.218088001327	2597.165736662706	-3619.928365110086	1028.563351992286	2477.240087429489	-3415.263565364612	746.9153638166905	2632.265261068482	-3421.184902901056	753.3219716701993	2350.534677538842	-3229.81725965544	838.4833057261299	2521.32820939107	-3226.706301700787	830.7486413429287	2431.147730813505	-3298.035185026255	739.1747425324278	2702.377442597539	-3326.29834357724	700.0994335895441	2273.408999133673	-3455.37649943569	562.8036900683654	2714.163203987745	-3589.402686300677	566.9756722682648	2654.820184779151	-3493.382927248968	431.5596867446651	2626.854654850859	-3605.131207807344	412.2975472414986	2723.790608090587	-3625.828078715467	401.8111820796879	2590.794458492484	-3514.937462994541	271.8112105884313	2727.064450362149	-3522.024372384571	176.1152613215949	2678.907123873227	-3427.152043669805	195.7854142225762	2652.071833790291	-3410.728109208583	86.94155193313823	2704.957264278103	-3425.859882039536	78.0268390690551	2617.153364107531	-3546.814265749123	46.02025913520981	2663.739069189483	-3507.070066737868	42.0234898430565	2746.843060397643	-3333.021814211714	64.90744907461853	2671.400448367198	-3514.416445495172	417.9091911799666	2390.525218296203	-3452.870481744109	528.3782948810942	2291.833447443958	-3584.986562324517	572.6427043957766	2355.48950927346	-3599.90358789921	403.6591546159842	2296.307733459922	-3619.639858110747	374.8501306879654	2423.781158817407	-3409.331639872255	180.7621074701142	2353.929627121498	-3498.20108838342	272.6289907487288	2293.133192846879	-3514.465317231801	173.9809316782116	2333.846099117606	-3395.784423729885	90.72106769772591	2302.791664261826	-3417.461500590338	81.45048955348834	2387.644462875114	-3530.063140228323	50.92656159016786	2341.043095666989	-3493.829516227886	49.25645242033774	2267.945775758183	-3322.492545137348	70.2019152632659	2348.139115205709	
231	22.14	-3528.721144116262	1165.321229413083	2474.754977746909	-3583.346038814881	1124.783218667352	2597.330648110661	-3619.687513305248	1034.30494336345	2477.279470456058	-3415.972740555256	751.3826475142448	2632.300128774162	-3422.089135365183	757.6075327629324	2350.472215785487	-3230.542086052957	842.8643671695631	2521.181554046386	-3227.516141802882	835.1219166469166	2430.957125969886	-3298.66780832501	743.3270598138993	2702.056303284857	-3327.34177561218	704.1675529559118	2273.534657821449	-3455.14811082536	565.4464464685166	2714.057726377381	-3589.30954701534	568.4083276203922	2654.942790293405	-3492.184814109498	433.8613080808407	2626.443178931394	-3603.64611104307	413.4494675139957	2723.541872339897	-3624.445037405051	403.0076873264765	2590.623004347239	-3513.915145747956	272.392516238741	2726.979204109643	-3521.457176712961	176.6470322559688	2678.924042929608	-3426.533678581123	195.8862456984241	2652.03551875924	-3410.624545553477	86.92838292611566	2704.975197905022	-3425.768274418794	78.06086230061784	2617.196752600167	-3546.78717498663	46.09559122743084	2663.767404305296	-3507.053910280752	42.00938836469237	2746.883882031296	-3332.969272503167	64.85158411582624	2671.450219376872	-3513.233010581429	420.370028832655	2390.758347345495	-3452.617250760552	531.2130060694039	2291.977840485663	-3585.189008545122	574.1853472481549	2355.43628956742	-3598.571241361113	404.7639174968231	2296.621799095949	-3618.301216473125	376.0013254395366	2424.001689040756	-3408.828559757327	180.8459407590381	2353.864525318553	-3497.271951912555	273.1202007049699	2293.228300093582	-3513.957142510462	174.4702230151902	2333.898024563592	-3395.665271088798	90.70982703795146	2302.676079721052	-3417.337458512135	81.46221733530453	2387.579662344504	-3530.010062550004	50.91823621273878	2341.039932958916	-3493.823783315545	49.25503177055023	2267.918122730267	-3322.420587670603	70.16642283036808	2348.085487755116	
232	22.145	-3527.981313621099	1170.848532327048	2474.901116530798	-3582.633987302692	1130.370727911798	2597.489645125265	-3619.442595759449	1040.070736079076	2477.318910951832	-3416.69128901732	755.871013887378	2632.342426930127	-3422.999168251397	761.9135201919064	2350.417122177586	-3231.276104859235	847.2656675837295	2521.043462391531	-3228.334798045868	839.5179995621763	2430.777839364433	-3299.311870774636	747.5067836539953	2701.747897843131	-3328.394445422603	708.2685564212322	2273.671026158145	-3454.903371646049	568.1119290350255	2713.949883939588	-3589.185465876727	569.8499343241214	2655.05769283985	-3490.949597359549	436.189891731144	2626.026021229952	-3602.118925159723	414.6207970302555	2723.281522787201	-3623.013205343442	404.2186967688688	2590.44254158542	-3512.86645681939	272.9882677019036	2726.88798263948	-3520.873178611987	177.1924622517068	2678.93912919221	-3425.900761181768	195.9870410980787	2651.997752327146	-3410.522449185798	86.91694768050951	2704.995329701381	-3425.673274666243	78.09589443935177	2617.245543532747	-3546.76031301995	46.17224886747803	2663.796726395005	-3507.038146672848	41.99373116635029	2746.925149584929	-3332.916166367415	64.79569364524626	2671.501191267826	-3512.009206660327	422.8454471676828	2391.004306895069	-3452.343939114276	534.0779376913171	2292.132663977536	-3585.357070430925	575.7365814520688	2355.40514842038	-3597.19091507052	405.8870533412259	2296.951214377073	-3616.918875008227	377.1760889193187	2424.240026339714	-3408.310918007786	180.931450278108	2353.805652645701	-3496.317189333808	273.6212669578115	2293.330759536741	-3513.432509985574	174.9719753242828	2333.958857166685	-3395.548147757273	90.70250358436759	2302.561936116297	-3417.214326415558	81.4720410475629	2387.515936766112	-3529.955830516281	50.91344316287482	2341.038524527171	-3493.818902547519	49.25475224996492	2267.891049102863	-3322.35049166507	70.13130319846402	2348.031588414937	
233	22.15	-3527.248237641008	1176.396152709533	2475.041347309408	-3581.928684249048	1135.978541494163	2597.642731209513	-3619.194241265833	1045.858327819414	2477.358368939616	-3417.419282370594	760.3789928091797	2632.392223123723	-3423.91501815531	766.2398023349066	2350.369654822375	-3232.019530573074	851.6867596374457	2520.914143865989	-3229.162861295888	843.9362483599108	2430.610623238434	-3299.967274374525	751.7137805622735	2701.453022610803	-3329.456178685398	712.4027845824769	2273.818042605981	-3454.642173327323	570.8002640460481	2713.839395645351	-3589.029272940006	571.3005194923451	2655.164448350553	-3489.675219743644	438.5459626449374	2625.604361127768	-3600.548840198418	415.8108550846273	2723.009365268626	-3621.530843580508	405.4440249588449	2590.252814263106	-3511.790773405928	273.5979766124773	2726.790778742557	-3520.272177648071	177.7516465757791	2678.951811587109	-3425.252841932121	196.0875885670567	2651.958996256346	-3410.421633904757	86.90698817764269	2705.018193233535	-3425.574653474775	78.13185104797364	2617.300155035948	-3546.733692951557	46.24994798666737	2663.826728222004	-3507.022870516741	41.97660189547524	2746.966657993853	-3332.862393544271	64.73977521810531	2671.553404051703	-3510.74271059787	425.3325266286604	2391.262263411038	-3452.050411288813	536.9732877367979	2292.297759290854	-3585.48951772219	577.2961946325022	2355.398295227202	-3595.7615983309	407.0288181699129	2297.296728577766	-3615.490472189412	378.3742381254966	2424.496735118444	-3407.777938326854	181.0181400434236	2353.753897124046	-3495.335934683444	274.1321705590767	2293.441139774875	-3512.890800244172	175.4865548779064	2334.028912925849	-3395.432919478248	90.69912501677432	2302.4503072902	-3417.09260733396	81.4801461405832	2387.453310916548	-3529.900716637736	50.91269440983876	2341.038680926566	-3493.814788826914	49.25557818173534	2267.864653526211	-3322.282855398516	70.0964494731306	2347.977595471526	
234	22.155	-3526.522568093483	1181.962010459066	2475.175767733667	-3581.23078296467	1141.604581927669	2597.790004543926	-3618.943145731498	1051.665205935267	2477.397886797525	-3418.156925487151	764.9050818652822	2632.449486764322	-3424.836713793621	770.5860884743041	2350.33001326778	-3232.772633375094	856.1271132568639	2520.793747207778	-3230.000947105241	848.3758733661423	2430.456142580428	-3300.634024172781	755.9478921421572	2701.172373885885	-3330.526711166456	716.5702708322625	2273.975567707772	-3454.36458628109	573.511496689543	2713.725948081956	-3588.839866140973	572.7599881106745	2655.262349473686	-3488.359616258427	440.9298524721991	2625.179305032537	-3598.935088425141	417.0188488284452	2722.725057463059	-3619.996316843446	406.6834232844014	2590.053381315791	-3510.687469430886	274.2210569239213	2726.687511845461	-3519.653989515487	178.3246254504758	2678.961478520132	-3424.589456262965	196.1876769090504	2651.919649471061	-3410.321851099108	86.89821121660276	2705.044288129955	-3425.472236027281	78.1686278217207	2617.36089178549	-3546.707309650024	46.32840131942018	2663.85707950994	-3507.008163785242	41.95811066012593	2747.008185683745	-3332.807853668848	64.68382545059329	2671.606902679135	-3509.431266760055	427.8287141550174	2391.531417503182	-3451.736635005255	539.8990506581557	2292.472955214259	-3585.58515285508	578.8638098361288	2355.417898589287	-3594.282363530166	408.1894329886346	2297.659074448375	-3614.013595406038	379.5954171861982	2424.772363115149	-3407.228861803979	181.1054482367554	2353.710053741344	-3494.327291172312	274.6528897239765	2293.560074794587	-3512.331392048467	176.0143206190643	2334.108484150271	-3395.319326431734	90.6996449141366	2302.342261448225	-3416.972727565273	81.48667439882333	2387.391832102957	-3529.845019873407	50.91643614041025	2341.040178450972	-3493.811348100391	49.25747196835588	2267.839037253232	-3322.218250026048	70.06175644928578	2347.923725450822	
